<svg id="Layer_1" enable-background="new 0 0 512 512" height="512" viewBox="0 0 512 512" width="512" xmlns="http://www.w3.org/2000/svg"><g><path d="m412.171 295.811 3.241 6.567c1.699 3.443 4.983 5.829 8.782 6.381l7.248 1.053c8.389 1.219 11.738 11.528 5.668 17.445l-5.244 5.112c-2.749 2.68-4.004 6.54-3.355 10.324l1.238 7.218c1.433 8.355-7.336 14.726-14.839 10.781l-6.482-3.408c-3.398-1.786-7.457-1.786-10.855 0l-6.482 3.408c-7.503 3.945-16.272-2.427-14.839-10.781l1.238-7.218c.649-3.784-.605-7.645-3.355-10.324l-5.244-5.112c-6.07-5.917-2.721-16.226 5.668-17.445l7.248-1.053c3.799-.552 7.083-2.938 8.782-6.381l3.241-6.567c3.75-7.602 14.59-7.602 18.341 0z" fill="#ffd15b"/><g><path d="m431.442 309.812-7.248-1.053c-3.799-.552-7.083-2.938-8.782-6.381l-3.241-6.568c-3.752-7.601-14.591-7.601-18.342 0l-3.241 6.568c-.65 1.316-1.534 2.475-2.588 3.439 1.701 1.557 3.848 2.601 6.195 2.942l7.248 1.053c8.389 1.219 11.738 11.528 5.668 17.445l-5.244 5.112c-2.749 2.68-4.004 6.54-3.355 10.324l1.238 7.218c.446 2.599-.097 5.005-1.28 6.97 3.201-1.352 6.853-1.229 9.958.404l6.483 3.408c7.503 3.945 16.272-2.427 14.839-10.781l-1.238-7.218c-.649-3.784.606-7.645 3.355-10.324l5.244-5.112c6.07-5.918 2.72-16.227-5.669-17.446z" fill="#ffc344"/></g><path d="m118.171 123.811 3.241 6.567c1.699 3.443 4.983 5.829 8.782 6.381l7.248 1.053c8.389 1.219 11.738 11.528 5.668 17.445l-5.244 5.112c-2.749 2.68-4.004 6.54-3.355 10.324l1.238 7.218c1.433 8.355-7.336 14.726-14.839 10.781l-6.482-3.408c-3.398-1.786-7.457-1.786-10.855 0l-6.482 3.408c-7.503 3.945-16.272-2.427-14.839-10.781l1.238-7.218c.649-3.784-.605-7.645-3.355-10.324l-5.244-5.112c-6.07-5.917-2.721-16.226 5.668-17.445l7.248-1.053c3.799-.552 7.083-2.938 8.782-6.381l3.241-6.567c3.75-7.602 14.59-7.602 18.341 0z" fill="#ffd15b"/><g><path d="m137.442 137.812-7.248-1.053c-3.799-.552-7.083-2.938-8.782-6.381l-3.241-6.567c-3.752-7.601-14.591-7.601-18.342 0l-3.241 6.567c-.65 1.316-1.534 2.475-2.588 3.439 1.701 1.557 3.848 2.601 6.195 2.942l7.248 1.053c8.389 1.219 11.738 11.528 5.668 17.445l-5.244 5.112c-2.749 2.68-4.004 6.54-3.355 10.324l1.238 7.218c.446 2.599-.097 5.005-1.28 6.97 3.201-1.352 6.853-1.229 9.958.404l6.483 3.408c7.503 3.945 16.272-2.427 14.839-10.781l-1.238-7.218c-.649-3.784.606-7.645 3.355-10.324l5.244-5.112c6.07-5.918 2.72-16.227-5.669-17.446z" fill="#ffc344"/></g><path d="m291 377.846c0 12.703-15.67 16.893-35 16.893s-35-4.19-35-16.893 15.67-29.107 35-29.107 35 16.405 35 29.107z" fill="#fe5694"/><path d="m388.926 162.869c0 96.76-72.327 195.029-132.926 195.029s-132.926-98.269-132.926-195.029 59.513-155.369 132.926-155.369 132.926 58.609 132.926 155.369z" fill="#2e3838"/><path d="m256 7.5c-5.072 0-10.075.29-15 .843 66.35 7.449 117.927 64.452 117.927 154.526 0 88.876-61.021 179.015-117.927 193.115 5.047 1.251 10.063 1.914 15 1.914 60.6 0 132.927-98.269 132.927-195.029s-59.514-155.369-132.927-155.369z" fill="#2e3838"/><g><path d="m227.6 129c11.201 0 20.478 3.835 27.472 8.627.566.387 1.29.387 1.856 0 6.994-4.792 16.271-8.627 27.472-8.627 23.886 0 42.6 20.826 42.6 47.41 0 17.028-8.376 49.924-64.475 78.993-2.046 1.069-4.285 1.597-6.525 1.597s-4.479-.528-6.525-1.597c-56.099-29.07-64.475-61.966-64.475-78.993 0-26.584 18.714-47.41 42.6-47.41z" fill="#fe76a8"/><g><path d="m284.4 129c-5.757 0-11.001 1.018-15.693 2.653 16.643 6.408 28.293 23.786 28.293 44.757 0 16.13-7.523 46.498-56 74.364 2.699 1.551 5.517 3.096 8.475 4.629 2.046 1.069 4.285 1.597 6.525 1.597s4.479-.528 6.525-1.597c56.099-29.07 64.475-61.966 64.475-78.993 0-26.584-18.714-47.41-42.6-47.41z" fill="#fe5694"/></g></g><g><path d="m437.142 348.644-1.238-7.219c-.231-1.351.216-2.728 1.198-3.685l5.244-5.112c4.867-4.745 6.586-11.708 4.485-18.172-2.1-6.465-7.583-11.088-14.311-12.065l-7.248-1.054c-1.356-.197-2.528-1.048-3.135-2.277l-3.241-6.568c-3.008-6.095-9.099-9.882-15.896-9.882s-12.889 3.787-15.896 9.882l-3.241 6.567c-.606 1.229-1.778 2.081-3.135 2.278l-7.249 1.053c-6.727.978-12.21 5.601-14.31 12.065-2.101 6.464-.382 13.427 4.485 18.172l5.244 5.112c.982.957 1.43 2.334 1.198 3.686l-1.239 7.219c-1.148 6.699 1.555 13.343 7.054 17.338 5.498 3.995 12.652 4.513 18.669 1.349l6.482-3.408c1.213-.639 2.662-.638 3.875 0l6.482 3.409c2.617 1.375 5.448 2.055 8.266 2.055 3.66 0 7.297-1.147 10.404-3.405 5.5-3.995 8.202-10.639 7.053-17.338zm-10.511-21.646c-4.518 4.404-6.578 10.746-5.511 16.963l1.237 7.218c.25 1.454-.572 2.295-1.085 2.667-.512.373-1.566.893-2.872.208l-6.482-3.409c-2.792-1.468-5.855-2.202-8.918-2.202s-6.126.734-8.918 2.202l-6.482 3.408c-1.306.687-2.361.165-2.872-.208-.513-.373-1.335-1.214-1.086-2.667l1.238-7.218c1.067-6.218-.993-12.559-5.511-16.963l-5.244-5.112c-1.057-1.03-.886-2.194-.69-2.796s.742-1.644 2.201-1.856l7.248-1.053c6.243-.906 11.637-4.825 14.43-10.483l3.241-6.568c.652-1.322 1.813-1.52 2.445-1.52s1.793.197 2.445 1.52l3.241 6.569c2.793 5.657 8.187 9.576 14.43 10.482l7.247 1.053c1.46.212 2.007 1.254 2.202 1.856s.366 1.766-.69 2.796z"/><path d="m395.5 254c0 4.142 3.357 7.5 7.5 7.5s7.5-3.358 7.5-7.5v-10c0-4.142-3.357-7.5-7.5-7.5s-7.5 3.358-7.5 7.5z"/><path d="m403 390.5c-4.143 0-7.5 3.358-7.5 7.5v10c0 4.142 3.357 7.5 7.5 7.5s7.5-3.358 7.5-7.5v-10c0-4.142-3.357-7.5-7.5-7.5z"/><path d="m445.495 384.604c-2.072-3.587-6.66-4.816-10.245-2.745-3.587 2.071-4.816 6.658-2.745 10.245l5 8.66c1.39 2.406 3.91 3.751 6.502 3.751 1.272 0 2.563-.324 3.743-1.006 3.587-2.071 4.816-6.658 2.745-10.245z"/><path d="m477.764 360.505-8.66-5c-3.589-2.072-8.175-.843-10.245 2.745-2.071 3.587-.842 8.174 2.745 10.245l8.66 5c1.182.682 2.471 1.006 3.743 1.006 2.592 0 5.113-1.345 6.502-3.751 2.071-3.587.842-8.174-2.745-10.245z"/><path d="m485 318.5h-10c-4.143 0-7.5 3.358-7.5 7.5s3.357 7.5 7.5 7.5h10c4.143 0 7.5-3.358 7.5-7.5s-3.357-7.5-7.5-7.5z"/><path d="m336.896 355.505-8.66 5c-3.587 2.071-4.816 6.658-2.745 10.245 1.39 2.406 3.91 3.751 6.502 3.751 1.272 0 2.563-.324 3.743-1.006l8.66-5c3.587-2.071 4.816-6.658 2.745-10.245-2.071-3.588-6.66-4.817-10.245-2.745z"/><path d="m465.36 297.501c1.272 0 2.563-.324 3.743-1.006l8.66-5c3.587-2.071 4.816-6.658 2.745-10.245-2.072-3.588-6.659-4.816-10.245-2.745l-8.66 5c-3.587 2.071-4.816 6.658-2.745 10.245 1.39 2.406 3.911 3.751 6.502 3.751z"/><path d="m370.75 381.859c-3.59-2.072-8.175-.843-10.245 2.745l-5 8.66c-2.071 3.587-.842 8.174 2.745 10.245 1.182.682 2.471 1.006 3.743 1.006 2.592 0 5.113-1.345 6.502-3.751l5-8.66c2.071-3.587.842-8.174-2.745-10.245z"/><path d="m447.75 248.491c-3.589-2.073-8.176-.843-10.245 2.745l-5 8.66c-2.071 3.587-.842 8.174 2.745 10.245 1.182.682 2.471 1.006 3.743 1.006 2.592 0 5.113-1.345 6.502-3.751l5-8.66c2.071-3.588.842-8.174-2.745-10.245z"/><path d="m109 89.5c4.142 0 7.5-3.358 7.5-7.5v-10c0-4.142-3.358-7.5-7.5-7.5s-7.5 3.358-7.5 7.5v10c0 4.142 3.358 7.5 7.5 7.5z"/><path d="m109 218.5c-4.142 0-7.5 3.358-7.5 7.5v10c0 4.142 3.358 7.5 7.5 7.5s7.5-3.358 7.5-7.5v-10c0-4.142-3.358-7.5-7.5-7.5z"/><path d="m66.505 95.396c1.389 2.406 3.91 3.751 6.502 3.751 1.272 0 2.562-.324 3.743-1.006 3.587-2.071 4.816-6.658 2.745-10.245l-5-8.66c-2.072-3.588-6.658-4.817-10.245-2.745-3.587 2.071-4.816 6.658-2.745 10.245z"/><path d="m50.396 111.505-8.66-5c-3.587-2.072-8.175-.843-10.245 2.745-2.071 3.587-.842 8.174 2.745 10.245l8.66 5c1.181.682 2.471 1.006 3.743 1.006 2.592 0 5.113-1.345 6.502-3.751 2.071-3.587.842-8.174-2.745-10.245z"/><path d="m44.5 154c0-4.142-3.358-7.5-7.5-7.5h-10c-4.142 0-7.5 3.358-7.5 7.5s3.358 7.5 7.5 7.5h10c4.142 0 7.5-3.358 7.5-7.5z"/><path d="m42.896 183.505-8.66 5c-3.587 2.071-4.816 6.658-2.745 10.245 1.389 2.406 3.91 3.751 6.502 3.751 1.272 0 2.562-.324 3.743-1.006l8.66-5c3.587-2.071 4.816-6.658 2.745-10.245-2.072-3.587-6.659-4.816-10.245-2.745z"/><path d="m76.75 209.859c-3.588-2.072-8.175-.843-10.245 2.745l-5 8.66c-2.071 3.587-.842 8.174 2.745 10.245 1.181.682 2.471 1.006 3.743 1.006 2.592 0 5.113-1.345 6.502-3.751l5-8.66c2.071-3.587.842-8.174-2.745-10.245z"/><path d="m130.574 162.869c0-44.356 12.798-82.032 37.01-108.954 22.568-25.095 53.968-38.915 88.416-38.915 37.947 0 71.485 16.386 94.435 46.14 2.529 3.279 7.236 3.889 10.52 1.358 3.279-2.53 3.888-7.24 1.357-10.52-25.854-33.519-63.609-51.978-106.312-51.978-38.758 0-74.119 15.585-99.57 43.884-17.359 19.302-29.396 43.427-35.707 71.147-3.172-2.806-7.294-4.422-11.723-4.422-6.797 0-12.888 3.787-15.896 9.883l-3.238 6.565c-.608 1.231-1.779 2.083-3.131 2.28l-7.254 1.051c-6.726.978-12.21 5.601-14.311 12.065-2.101 6.465-.383 13.43 4.483 18.176l5.242 5.113c.984.959 1.434 2.334 1.203 3.679l-1.241 7.225c-1.147 6.705 1.56 13.351 7.063 17.344 3.105 2.253 6.736 3.397 10.391 3.397 2.82 0 5.654-.681 8.271-2.06l6.465-3.402c1.223-.64 2.682-.64 3.89-.008l6.477 3.408c.26.137.525.255.789.379 6.974 44.747 27.501 90.076 57.005 123.894 1.483 1.7 3.563 2.569 5.654 2.569 1.75 0 3.506-.608 4.928-1.849 3.121-2.723 3.444-7.461.721-10.582-34.503-39.547-55.937-95.824-55.937-146.867zm-30.497 15.774-6.482 3.412c-1.303.686-2.354.166-2.865-.205-.513-.373-1.337-1.215-1.088-2.669l1.24-7.219c1.068-6.213-.995-12.555-5.515-16.96l-5.24-5.111c-1.058-1.032-.887-2.197-.691-2.8s.743-1.646 2.2-1.857l7.251-1.05c6.239-.905 11.632-4.823 14.43-10.485l3.239-6.568c.652-1.322 1.812-1.519 2.444-1.519s1.792.197 2.443 1.518l3.242 6.574c.629 1.274 1.407 2.454 2.296 3.549-.932 8.29-1.408 16.837-1.408 25.618 0 4.946.194 9.939.563 14.96-5.179-2.076-11.047-1.812-16.059.812z"/><path d="m379.683 80.793c-1.736-3.76-6.193-5.402-9.953-3.665-3.761 1.737-5.401 6.193-3.664 9.954 10.193 22.07 15.361 47.568 15.361 75.786 0 43.81-15.448 91.01-42.384 129.499-25.428 36.336-56.473 58.03-83.043 58.03-14.716 0-31.114-6.745-47.42-19.505-3.263-2.553-7.976-1.978-10.529 1.285-2.552 3.262-1.978 7.976 1.285 10.529 7.576 5.928 15.25 10.72 22.89 14.362-5.478 6.374-8.725 13.855-8.725 20.782 0 5.208 1.932 14.749 14.87 20.132 5.251 2.185 12.005 3.533 20.13 4.034v102.484c0 4.142 3.358 7.5 7.5 7.5 4.143 0 7.5-3.358 7.5-7.5v-102.484c8.125-.501 14.879-1.849 20.13-4.034 12.938-5.383 14.87-14.924 14.87-20.132 0-6.939-3.26-14.435-8.756-20.816 21.537-10.296 43.143-29.709 61.589-56.066 28.657-40.951 45.094-91.286 45.094-138.1-.001-30.405-5.635-58.019-16.745-82.075zm-96.183 297.057c0 8.713-21.049 9.39-27.5 9.39-9.42 0-16.982-1.075-21.868-3.107-5.632-2.343-5.632-5.004-5.632-6.283 0-3.851 2.913-9.98 9.245-14.982 6.195 1.665 12.307 2.529 18.255 2.529 5.957 0 12.063-.867 18.241-2.541 6.342 5.004 9.259 11.14 9.259 14.994z"/><path d="m193.23 147.019c-3.738-1.787-8.215-.204-10.001 3.533-3.748 7.843-5.729 16.785-5.729 25.857 0 18.728 8.902 54.757 68.501 85.64 3.066 1.603 6.524 2.451 9.999 2.451 3.476 0 6.934-.848 9.975-2.438 59.623-30.895 68.525-66.925 68.525-85.652 0-30.791-22.007-54.91-50.1-54.91-9.967 0-19.708 2.696-28.4 7.831-8.691-5.134-18.433-7.831-28.4-7.831-6.104 0-12.042 1.144-17.651 3.398-3.843 1.545-5.706 5.913-4.161 9.756s5.913 5.705 9.756 4.161c3.822-1.536 7.878-2.315 12.056-2.315 8.332 0 16.149 2.461 23.231 7.313 3.14 2.153 7.197 2.153 10.335.002 7.085-4.854 14.902-7.314 23.234-7.314 19.682 0 35.1 17.53 35.1 39.91 0 15.321-7.851 45.091-60.451 72.347-1.859.973-4.213.985-6.123-.013-52.576-27.245-60.426-57.015-60.426-72.335 0-6.849 1.474-13.553 4.264-19.39 1.786-3.737.204-8.215-3.534-10.001z"/></g></g></svg>