<svg id="Layer_1" enable-background="new 0 0 512 512" height="512" viewBox="0 0 512 512" width="512" xmlns="http://www.w3.org/2000/svg"><g><path d="m210.025 284.214c0-21.055-17.068-38.123-38.123-38.123-5.335 0-10.414 1.098-15.024 3.077-1.26-10.633-10.3-18.881-21.271-18.881-3.727 0-7.232.953-10.285 2.627-6.298-13.144-19.725-22.222-35.273-22.222-20.632 0-37.53 15.985-38.988 36.246-2.585-.553-5.266-.847-8.016-.847-21.055 0-38.123 17.068-38.123 38.123z" fill="#e0efff"/><path d="m340.426 352.028s3.269-11.682 14.729-12.841c3.59-.363 7.292 1.498 7.292 1.498 4.395-9.173 13.765-15.507 24.615-15.507 14.398 0 26.19 11.155 27.207 25.294 1.804-.386 3.675-.591 5.594-.591 14.693 0 26.603 11.911 26.603 26.603h-114.287" fill="#e0efff"/><g fill="#bfdeff"><path d="m138.036 243.934c-1.543-3.977-6.015-5.953-9.997-4.409-3.978 1.543-5.952 6.019-4.409 9.997l65.932 169.98c1.187 3.06 4.109 4.934 7.205 4.934.929 0 1.874-.169 2.792-.525 3.978-1.543 5.952-6.019 4.409-9.997z"/><path d="m383.961 239.525c-3.978-1.545-8.455.431-9.997 4.409l-65.932 169.98c-1.543 3.978.431 8.455 4.409 9.997.918.357 1.863.525 2.792.525 3.096 0 6.019-1.874 7.205-4.934l65.932-169.98c1.543-3.978-.43-8.454-4.409-9.997z"/></g><path d="m243.442 341.064c-7.461-3.042-182.723-76.098-182.326-215.349.133-46.543 24.957-92.52 67.059-113.963 42.391-21.59 94.135-12.62 128.088 20.248 34.249-32.78 86.037-41.273 128.406-19.428 42.034 21.673 66.965 67.956 66.199 114.687-2.262 137.869-175.915 210.741-183.306 213.775-7.725 3.172-16.387 3.183-24.12.03z" fill="#ff91c1"/><g><path d="m140.075 125.707c-.397 139.251 103.771 212.105 108.206 215.138 4.596 3.144 9.749 3.123 14.348-.058 4.4-3.043 107.78-76.116 109.285-213.988.51-46.731-14.267-92.985-39.245-114.61-3.855-3.337-7.842-7.056-11.904-10.842-23.733 2.954-46.532 13.454-64.502 30.653-17.836-17.266-40.582-27.924-64.302-31.035-4.045 3.735-8.019 7.405-11.865 10.701-25.069 21.492-39.888 67.498-40.021 114.041z" fill="#ff5492"/></g><g><path d="m332.668 12.19c-3.855-3.337-7.842-7.056-11.904-10.842-10.88 1.354-21.556 4.313-31.668 8.757.792.706 1.583 1.408 2.365 2.085 24.978 21.625 39.755 67.879 39.245 114.61-1.198 109.751-66.949 178.438-95.941 203.427 7.516 6.445 12.608 9.997 13.516 10.618 4.596 3.144 9.749 3.123 14.348-.058 4.4-3.043 107.78-76.116 109.285-213.988.509-46.73-14.267-92.985-39.246-114.609z" fill="#fa3e82"/></g><path d="m308.635 232.862c0-20.876 16.923-37.8 37.8-37.8 5.29 0 10.326 1.088 14.897 3.051 1.249-10.543 10.212-18.721 21.091-18.721 3.696 0 7.17.945 10.197 2.605 6.244-13.033 19.558-22.034 34.974-22.034 20.458 0 37.212 15.849 38.658 35.938 2.563-.549 5.221-.84 7.948-.84 20.876 0 37.8 16.923 37.8 37.8h-203.365z" fill="#e0efff"/><path d="m474.2 195.062c-2.727 0-5.385.291-7.948.84-1.446-20.089-18.2-35.938-38.658-35.938-7.571 0-14.629 2.181-20.598 5.934 10.154 6.389 17.138 17.354 18.048 30.004 2.563-.549 5.221-.84 7.948-.84 20.876 0 37.8 16.923 37.8 37.8h41.208c0-20.876-16.923-37.8-37.8-37.8z" fill="#d4e8ff"/><path d="m0 79.085c0-16.748 13.577-30.324 30.324-30.324 4.244 0 8.284.873 11.951 2.448 1.002-8.458 8.193-15.018 16.92-15.018 2.965 0 5.752.758 8.181 2.09 5.009-10.455 15.69-17.676 28.058-17.676 16.412 0 29.853 12.715 31.013 28.831 2.056-.44 4.189-.674 6.376-.674 16.748 0 30.324 13.577 30.324 30.324h-163.147z" fill="#e0efff"/><path d="m132.823 48.761c-2.188 0-4.32.234-6.376.674-1.16-16.116-14.601-28.831-31.013-28.831-7.906 0-15.113 2.96-20.6 7.82 5.901 5.229 9.804 12.66 10.405 21.011 2.056-.44 4.189-.674 6.376-.674 16.748 0 30.324 13.577 30.324 30.324h41.207c.001-16.747-13.576-30.324-30.323-30.324z" fill="#d4e8ff"/><g><path d="m314.965 512h-117.93c-15.935 0-28.853-12.918-28.853-28.853v-54.587c0-11.379 9.225-20.604 20.604-20.604h134.429c11.379 0 20.604 9.225 20.604 20.604v54.588c-.001 15.934-12.919 28.852-28.854 28.852z" fill="#ba7652"/><path d="m219.772 512v-27.527h124.046v-15.453h-80.092v-18.451h27.643c4.267 0 7.726-3.459 7.726-7.726s-3.459-7.726-7.726-7.726h-27.643v-27.161h-15.453v27.161h-28.502v-27.161h-15.453v27.161h-35.885v15.453h35.885v61.43zm0-61.431h28.502v18.451h-28.502z" fill="#8a5030"/></g></g></svg>