<svg id="Capa_1" enable-background="new 0 0 512 512" height="512" viewBox="0 0 512 512" width="512" xmlns="http://www.w3.org/2000/svg"><g><path d="m256 411.649c-3.375 0-6.111-2.736-6.111-6.111v-188.6c0-3.375 2.736-6.111 6.111-6.111s6.111 2.736 6.111 6.111v188.6c0 3.375-2.736 6.111-6.111 6.111z" fill="#7f392c"/><g><g><g><g><g><g><g><g><path d="m402.091 26.324c-35.096-35.097-91.999-35.097-127.095-.001l-18.997 18.997-18.996-18.996c-35.096-35.097-91.999-35.097-127.095-.001s-57.632 130.268 134.509 250.323c7.071 4.457 16.091 4.457 23.162 0 238.63-150.42 134.512-250.322 134.512-250.322z" fill="#fe2544"/></g><g><path d="m244.412 276.645-.114-.072c5.369-2.201 10.68-4.756 15.874-7.667 69.052-38.707 93.66-126.07 54.953-195.122-10.585-18.883-24.81-34.447-41.299-46.29l1.172-1.173c35.096-35.095 92-35.094 127.095.002 0 0 104.12 99.899-134.518 250.322-7.071 4.457-16.092 4.458-23.163 0z" fill="#e00e36"/></g><g><path d="m244.395 276.632c-12.43-7.835-23.932-15.532-34.562-23.089 25.788-.253 51.883-6.801 75.968-20.302 76.521-42.894 103.783-139.708 60.889-216.229-3.341-5.961-7.008-11.623-10.966-16.968 23.928-.747 48.104 8.007 66.368 26.279 0 0 104.119 99.898-134.515 250.32-7.076 4.461-16.105 4.45-23.182-.011z" fill="#c4002f"/></g></g></g></g><g><path d="m129.143 158.506c6.929-4.206 9.157-13.284 4.916-20.192-9.277-15.111-14.797-29.627-16.442-43.345-2.026-16.782 2.26-29.539 6.495-37.591 2.8-5.325 1.998-11.825-1.929-16.383-.068-.078-.135-.157-.203-.235-6.741-7.828-19.304-6.517-24.139 2.613-5.386 10.171-10.542 24.697-10.542 43.036 0 18.708 5.378 41.384 21.353 67.446 4.24 6.917 13.302 9.019 20.236 4.807.085-.052.17-.104.255-.156z" fill="#fc708a"/></g></g><circle cx="148.079" cy="178.239" fill="#fc708a" r="16.72"/></g></g></g><path d="m295.928 511.995h-79.857c-4.975 0-9.193-3.657-9.899-8.581l-13.56-94.623h126.774l-13.56 94.623c-.704 4.924-4.923 8.581-9.898 8.581z" fill="#b55434"/><path d="m319.389 408.787-13.56 94.631c-.706 4.925-4.924 8.582-9.899 8.582h-79.86c-4.975 0-9.193-3.657-9.899-8.581l-.841-5.864c5.472 1.163 11.161 1.775 16.979 1.775 45.197 0 81.826-36.639 81.826-81.826 0-2.948-.158-5.847-.463-8.716z" fill="#a1412b"/><path d="m316.993 435.472h-122.015c-9.925 0-17.97-8.045-17.97-17.97s8.045-17.97 17.97-17.97h122.015c9.925 0 17.97 8.045 17.97 17.97 0 9.924-8.045 17.97-17.97 17.97z" fill="#db765a"/><path d="m256.007 435.472h-23.417c-9.925 0-17.97-8.045-17.97-17.97s8.045-17.97 17.97-17.97h23.417c9.925 0 17.97 8.045 17.97 17.97 0 9.924-8.046 17.97-17.97 17.97z" fill="#f4a698"/><g fill="#a1412b"><path d="m207.661 410.517c-3.337.505-6.452-1.79-6.957-5.127l-28.246-186.473c-.505-3.337 1.79-6.452 5.127-6.957s6.452 1.79 6.957 5.127l28.246 186.473c.505 3.336-1.79 6.451-5.127 6.957z"/><path d="m304.339 410.517c3.337.505 6.452-1.79 6.957-5.127l28.246-186.473c.505-3.337-1.79-6.452-5.127-6.957s-6.452 1.79-6.957 5.127l-28.246 186.473c-.505 3.336 1.79 6.451 5.127 6.957z"/></g></g></svg>