<svg id="Layer_1" height="512" viewBox="0 0 512 512" width="512" xmlns="http://www.w3.org/2000/svg" 
xmlns:xlink="http://www.w3.org/1999/xlink" data-name="Layer 1">
<linearGradient id="linear-gradient" gradientUnits="userSpaceOnUse" x1="263.396" x2="263.396" y1="457.123" y2="53.097">
<stop offset=".322" stop-color="#a163f5"/><stop offset=".466" stop-color="#b074ee"/><stop offset=".752" stop-color="#d8a1dd"/>
<stop offset=".898" stop-color="#efbad3"/></linearGradient>
<linearGradient id="linear-gradient-2" x1="310.855" x2="310.855" xlink:href="#linear-gradient" y1="457.123" y2="53.097"/>
<linearGradient id="linear-gradient-3" x1="114.175" x2="114.175" xlink:href="#linear-gradient" y1="457.123" y2="53.097"/>
<linearGradient id="linear-gradient-4" x1="468.26" x2="468.26" xlink:href="#linear-gradient" y1="457.123" y2="53.097"/>
<linearGradient id="linear-gradient-5" x1="142.525" x2="142.525" xlink:href="#linear-gradient" y1="457.123" y2="53.097"/><linearGradient id="linear-gradient-6" x1="211" x2="211" xlink:href="#linear-gradient" y1="457.123" y2="53.097"/><linearGradient id="linear-gradient-7" x1="371.59" x2="371.59" xlink:href="#linear-gradient" y1="457.123" y2="53.097"/><linearGradient id="linear-gradient-8" x1="57.483" x2="57.483" xlink:href="#linear-gradient" y1="457.123" y2="53.097"/><path d="m67.527 73.462a181.045 181.045 0 0 0 33 20.154l17.425 59.257a6 6 0 0 0 9.842 2.7l39.235-36.494 25.247 47.229a6 6 0 0 0 4.893 3.158c.134.009.267.013.4.013a6 6 0 0 0 4.869-2.495l31.235-43.4 33.237 41.848a6 6 0 0 0 10.074-1.067l23.689-47.8 38.969 36.406a6 6 0 0 0 9.784-2.474l16.961-50.51 43.249 31.113a6 6 0 0 0 9.426-3.906l11.771-72.2c13.249-6.236 22.824-11.235 27.606-13.8a6 6 0 1 0 -5.678-10.572c-5.229 2.809-16.312 8.589-31.8 15.738-125.761 58.04-211.405 58.855-251.261 54.172-22.47-2.65-43.161-8.222-61.5-16.565a169.377 169.377 0 0 1 -33.347-20.009 6 6 0 0 0 -7.326 9.5zm350.165-12.446-8.915 54.684-41.983-30.2a6 6 0 0 0 -9.192 2.96l-16.581 49.379-38.045-35.539a6 6 0 0 0 -1.373-.952c45.483-11.059 86.65-27.178 116.089-40.332zm-123.63 42.106a5.931 5.931 0 0 0 -.558.894l-23.073 46.552-30.414-38.294a464.912 464.912 0 0 0 54.045-9.152zm-91.95 11.239q12 0 24.035-.859l-27.824 38.66-20.736-38.791q12.185 1.005 24.525.99zm-44.039-3.337-31.344 29.154-11.901-40.478a220.5 220.5 0 0 0 43.245 11.324z" fill="url(#linear-gradient)"/>
</svg>