<svg width="126" height="52" viewBox="0 0 126 52" fill="none" xmlns="http://www.w3.org/2000/svg">
<path opacity="0.3" d="M24.5 3.125H46.5V18.75H24.5V3.125Z" fill="black"/>
<path d="M46.5 21.875C48.0125 21.875 49.25 20.4688 49.25 18.75V3.125C49.25 1.40625 48.0125 0 46.5 0H24.5C22.9875 0 21.75 1.40625 21.75 3.125V18.75C21.75 20.4688 22.9875 21.875 24.5 21.875H19V25H52V21.875H46.5ZM24.5 3.125H46.5V18.75H24.5V3.125Z" fill="black"/>
<path d="M42.6228 16.084H36.3228L35.0808 19H32.6688L38.3388 6.4H40.6428L46.3308 19H43.8828L42.6228 16.084ZM41.8488 14.248L39.4728 8.74L37.1148 14.248H41.8488Z" fill="black"/>
<g filter="url(#filter0_d)">
<path d="M60.9107 9.28C62.1227 9.28 63.0827 9.634 63.7907 10.342C64.4987 11.038 64.8527 12.088 64.8527 13.492V19H62.6027V13.78C62.6027 12.94 62.4167 12.31 62.0447 11.89C61.6727 11.458 61.1387 11.242 60.4427 11.242C59.6867 11.242 59.0807 11.494 58.6247 11.998C58.1687 12.49 57.9407 13.198 57.9407 14.122V19H55.6907V13.78C55.6907 12.94 55.5047 12.31 55.1327 11.89C54.7607 11.458 54.2267 11.242 53.5307 11.242C52.7627 11.242 52.1507 11.488 51.6947 11.98C51.2507 12.472 51.0287 13.186 51.0287 14.122V19H48.7787V9.388H50.9207V10.612C51.2807 10.18 51.7307 9.85 52.2707 9.622C52.8107 9.394 53.4107 9.28 54.0707 9.28C54.7907 9.28 55.4267 9.418 55.9787 9.694C56.5427 9.958 56.9867 10.354 57.3107 10.882C57.7067 10.378 58.2167 9.988 58.8407 9.712C59.4647 9.424 60.1547 9.28 60.9107 9.28ZM77.2298 5.644V19H75.0698V17.758C74.6978 18.214 74.2358 18.556 73.6838 18.784C73.1438 19.012 72.5438 19.126 71.8838 19.126C70.9598 19.126 70.1258 18.922 69.3818 18.514C68.6498 18.106 68.0738 17.53 67.6538 16.786C67.2338 16.03 67.0238 15.166 67.0238 14.194C67.0238 13.222 67.2338 12.364 67.6538 11.62C68.0738 10.876 68.6498 10.3 69.3818 9.892C70.1258 9.484 70.9598 9.28 71.8838 9.28C72.5198 9.28 73.1018 9.388 73.6298 9.604C74.1578 9.82 74.6078 10.144 74.9798 10.576V5.644H77.2298ZM72.1538 17.2C72.6938 17.2 73.1798 17.08 73.6118 16.84C74.0438 16.588 74.3858 16.234 74.6378 15.778C74.8898 15.322 75.0158 14.794 75.0158 14.194C75.0158 13.594 74.8898 13.066 74.6378 12.61C74.3858 12.154 74.0438 11.806 73.6118 11.566C73.1798 11.314 72.6938 11.188 72.1538 11.188C71.6138 11.188 71.1278 11.314 70.6958 11.566C70.2638 11.806 69.9218 12.154 69.6698 12.61C69.4178 13.066 69.2918 13.594 69.2918 14.194C69.2918 14.794 69.4178 15.322 69.6698 15.778C69.9218 16.234 70.2638 16.588 70.6958 16.84C71.1278 17.08 71.6138 17.2 72.1538 17.2Z" fill="black"/>
</g>
<defs>
<filter id="filter0_d" x="44.7787" y="5.644" width="36.4511" height="21.482" filterUnits="userSpaceOnUse" color-interpolation-filters="sRGB">
<feFlood flood-opacity="0" result="BackgroundImageFix"/>
<feColorMatrix in="SourceAlpha" type="matrix" values="0 0 0 0 0 0 0 0 0 0 0 0 0 0 0 0 0 0 127 0"/>
<feOffset dy="4"/>
<feGaussianBlur stdDeviation="2"/>
<feColorMatrix type="matrix" values="0 0 0 0 0 0 0 0 0 0 0 0 0 0 0 0 0 0 0.25 0"/>
<feBlend mode="normal" in2="BackgroundImageFix" result="effect1_dropShadow"/>
<feBlend mode="normal" in="SourceGraphic" in2="effect1_dropShadow" result="shape"/>
</filter>
</defs>
</svg>
