<svg width="92" height="58" viewBox="0 0 92 58" fill="none" xmlns="http://www.w3.org/2000/svg">
<path d="M42.6228 22.084H36.3228L35.0808 25H32.6688L38.3388 12.4H40.6428L46.3308 25H43.8828L42.6228 22.084ZM41.8488 20.248L39.4728 14.74L37.1148 20.248H41.8488Z" fill="black"/>
<path d="M60.9107 15.28C62.1227 15.28 63.0827 15.634 63.7907 16.342C64.4987 17.038 64.8527 18.088 64.8527 19.492V25H62.6027V19.78C62.6027 18.94 62.4167 18.31 62.0447 17.89C61.6727 17.458 61.1387 17.242 60.4427 17.242C59.6867 17.242 59.0807 17.494 58.6247 17.998C58.1687 18.49 57.9407 19.198 57.9407 20.122V25H55.6907V19.78C55.6907 18.94 55.5047 18.31 55.1327 17.89C54.7607 17.458 54.2267 17.242 53.5307 17.242C52.7627 17.242 52.1507 17.488 51.6947 17.98C51.2507 18.472 51.0287 19.186 51.0287 20.122V25H48.7787V15.388H50.9207V16.612C51.2807 16.18 51.7307 15.85 52.2707 15.622C52.8107 15.394 53.4107 15.28 54.0707 15.28C54.7907 15.28 55.4267 15.418 55.9787 15.694C56.5427 15.958 56.9867 16.354 57.3107 16.882C57.7067 16.378 58.2167 15.988 58.8407 15.712C59.4647 15.424 60.1547 15.28 60.9107 15.28ZM77.2298 11.644V25H75.0698V23.758C74.6978 24.214 74.2358 24.556 73.6838 24.784C73.1438 25.012 72.5438 25.126 71.8838 25.126C70.9598 25.126 70.1258 24.922 69.3818 24.514C68.6498 24.106 68.0738 23.53 67.6538 22.786C67.2338 22.03 67.0238 21.166 67.0238 20.194C67.0238 19.222 67.2338 18.364 67.6538 17.62C68.0738 16.876 68.6498 16.3 69.3818 15.892C70.1258 15.484 70.9598 15.28 71.8838 15.28C72.5198 15.28 73.1018 15.388 73.6298 15.604C74.1578 15.82 74.6078 16.144 74.9798 16.576V11.644H77.2298ZM72.1538 23.2C72.6938 23.2 73.1798 23.08 73.6118 22.84C74.0438 22.588 74.3858 22.234 74.6378 21.778C74.8898 21.322 75.0158 20.794 75.0158 20.194C75.0158 19.594 74.8898 19.066 74.6378 18.61C74.3858 18.154 74.0438 17.806 73.6118 17.566C73.1798 17.314 72.6938 17.188 72.1538 17.188C71.6138 17.188 71.1278 17.314 70.6958 17.566C70.2638 17.806 69.9218 18.154 69.6698 18.61C69.4178 19.066 69.2918 19.594 69.2918 20.194C69.2918 20.794 69.4178 21.322 69.6698 21.778C69.9218 22.234 70.2638 22.588 70.6958 22.84C71.1278 23.08 71.6138 23.2 72.1538 23.2Z" fill="black"/>
<path d="M45.5 27.75C47.0125 27.75 48.25 26.3625 48.25 24.6667V9.24999C48.25 7.55416 47.0125 6.16666 45.5 6.16666H23.5C21.9875 6.16666 20.75 7.55416 20.75 9.24999V24.6667C20.75 26.3625 21.9875 27.75 23.5 27.75H18V30.8333H51V27.75H45.5ZM23.5 9.24999H45.5V24.6667H23.5V9.24999Z" fill="black"/>
</svg>
